<svg width="18" height="20" viewBox="0 0 18 20" fill="none" xmlns="http://www.w3.org/2000/svg">
<path d="M3.864 15.6081L6.33745 16.9629C9.2784 18.5738 12.4031 15.373 10.3616 12.8407L9.36995 11.6106C8.88047 11.0035 9.00838 10.1585 9.65564 9.72347C10.4989 9.15663 10.4129 7.96497 9.49264 7.46432L7.0116 6.11458C3.855 4.39733 0.514674 7.82987 2.70202 10.5431L3.97067 12.1168C4.38303 12.6283 4.27528 13.3401 3.72999 13.7067C3.02087 14.1833 3.09147 15.1849 3.864 15.6081Z" fill="#F5F5F5" fill-opacity="0.2" stroke="#060606"/>
<path d="M5.01497 14.7994L7.48842 16.1542C10.4294 17.7651 13.5541 14.5643 11.5126 12.032L10.5209 10.8019C10.0314 10.1947 10.1593 9.34981 10.8066 8.91472C11.6499 8.34788 11.5639 7.15623 10.6436 6.65557L8.16257 5.30584C5.00597 3.58859 1.66564 7.02112 3.85299 9.73438L5.12164 11.308C5.534 11.8196 5.42625 12.5314 4.88096 12.8979C4.17184 13.3746 4.24244 14.3762 5.01497 14.7994Z" fill="#F5F5F5" fill-opacity="0.5"/>
<path d="M4.11093 5.96347C5.02339 5.02582 6.57511 4.6138 8.09042 5.43808L10.5719 6.78769C11.4017 7.23923 11.4649 8.29201 10.7232 8.79062C10.003 9.27475 9.85929 10.2204 10.4039 10.8961L11.3961 12.1266C12.3631 13.3264 12.1083 14.6739 11.2613 15.5416C10.4115 16.4121 8.96769 16.794 7.56015 16.023L5.08749 14.6676C4.40507 14.2938 4.35658 13.4307 4.96445 13.0221C5.58272 12.6064 5.70643 11.7935 5.23886 11.2135L3.96933 9.64022C2.92923 8.34984 3.20136 6.89838 4.11093 5.96347Z" stroke="#060606" stroke-width="0.3"/>
<path d="M6.20055 13.9232L8.67399 15.278C11.615 16.8889 14.7396 13.6881 12.6982 11.1558L11.7065 9.9257C11.217 9.31853 11.3449 8.47362 11.9922 8.03854C12.8355 7.4717 12.7495 6.28004 11.8292 5.77939L9.34815 4.42965C6.19155 2.7124 2.85122 6.14494 5.03857 8.8582L6.30721 10.4319C6.71958 10.9434 6.61183 11.6552 6.06654 12.0217C5.35742 12.4984 5.42801 13.5 6.20055 13.9232Z" fill="#F5F5F5" fill-opacity="0.5"/>
<path d="M5.29651 5.08728C6.20897 4.14964 7.76068 3.73762 9.276 4.56189L11.7574 5.9115C12.5873 6.36304 12.6505 7.41583 11.9088 7.91443C11.1886 8.39857 11.0449 9.34426 11.5895 10.0199L12.5817 11.2504C13.5487 12.4502 13.2939 13.7978 12.4469 14.6654C11.5971 15.5359 10.1533 15.9178 8.74573 15.1469L6.27307 13.7914C5.59064 13.4176 5.54215 12.5545 6.15002 12.1459C6.7683 11.7303 6.89201 10.9173 6.42444 10.3373L5.15491 8.76404C4.11481 7.47366 4.38694 6.0222 5.29651 5.08728Z" stroke="#060606" stroke-width="0.3"/>
<path d="M7.44976 12.9593L9.9232 14.3141C12.8642 15.9251 15.9889 12.7243 13.9474 10.192L12.9557 8.96185C12.4662 8.35468 12.5941 7.50977 13.2414 7.07469C14.0847 6.50785 13.9987 5.31619 13.0784 4.81554L10.5974 3.4658C7.44075 1.74855 4.10043 5.18109 6.28778 7.89435L7.55642 9.46802C7.96879 9.97953 7.86103 10.6913 7.31574 11.0579C6.60663 11.5345 6.67722 12.5362 7.44976 12.9593Z" fill="#F5F5F5" fill-opacity="0.5"/>
<path d="M6.54572 4.12343C7.45817 3.18578 9.00989 2.77377 10.5252 3.59804L13.0067 4.94765C13.8365 5.39919 13.8997 6.45197 13.158 6.95058C12.4378 7.43472 12.2941 8.3804 12.8387 9.05605L13.8309 10.2865C14.7979 11.4864 14.5431 12.8339 13.6961 13.7016C12.8463 14.572 11.4025 14.954 9.99493 14.183L7.52228 12.8275C6.83985 12.4537 6.79136 11.5906 7.39923 11.182C8.01751 10.7664 8.14122 9.95342 7.67365 9.37343L6.40411 7.80019C5.36401 6.50981 5.63615 5.05835 6.54572 4.12343Z" stroke="#060606" stroke-width="0.3"/>
<path d="M8.75643 11.955L11.2299 13.3099C14.1708 14.9208 17.2955 11.72 15.2541 9.18766L14.2624 7.95756C13.7729 7.35039 13.9008 6.50548 14.5481 6.0704C15.3913 5.50356 15.3054 4.3119 14.3851 3.81125L11.904 2.46151C8.74742 0.744259 5.4071 4.1768 7.59445 6.89006L8.86309 8.46372C9.27546 8.97524 9.1677 9.68704 8.62241 10.0536C7.9133 10.5302 7.98389 11.5319 8.75643 11.955Z" fill="#F5F5F5" fill-opacity="0.2" stroke="#060606"/>
</svg>
