<svg width="266" height="288" viewBox="0 0 266 288" fill="none" xmlns="http://www.w3.org/2000/svg">
<path d="M37.1132 252.991L83.7068 277.98C139.107 307.693 197.969 248.655 159.512 201.948L140.832 179.259C131.611 168.06 134.021 152.476 146.213 144.451C162.098 133.995 160.479 112.016 143.143 102.781L96.4061 77.8857C36.9436 46.2115 -25.9799 109.524 15.2244 159.569L39.1225 188.595C46.8904 198.03 44.8606 211.159 34.5887 217.919C21.2307 226.711 22.5605 245.186 37.1132 252.991Z" fill="#F5F5F5" fill-opacity="0.2" stroke="#060606"/>
<path d="M58.7944 238.082L105.388 263.071C160.788 292.784 219.65 233.746 181.194 187.039L162.513 164.35C153.292 153.151 155.702 137.566 167.895 129.541C183.78 119.086 182.16 97.1065 164.824 87.8721L118.087 62.9765C58.6248 31.3023 -4.29865 94.6145 36.9056 144.66L60.8037 173.686C68.5717 183.12 66.5418 196.249 56.2699 203.01C42.9119 211.802 44.2418 230.277 58.7944 238.082Z" fill="#F5F5F5" fill-opacity="0.5"/>
<path d="M39.8531 73.2795C57.8223 55.1993 88.3476 47.3044 118.017 63.1086L164.753 88.0042C181.998 97.1901 183.593 119.029 167.812 129.416C155.546 137.49 153.119 153.176 162.397 164.445L181.078 187.134C190.669 198.783 194.187 211.192 193.214 222.789C192.242 234.389 186.775 245.187 178.38 253.607C161.591 270.446 133.097 277.762 105.459 262.939L58.8658 237.949C44.4039 230.193 43.0978 211.859 56.3521 203.135C66.6976 196.326 68.7448 183.094 60.9195 173.59L37.0211 144.565C26.7431 132.081 22.9643 118.779 23.9947 106.342C25.0253 93.9032 30.8684 82.3197 39.8531 73.2795Z" stroke="#060606" stroke-width="0.3"/>
<path d="M81.1278 221.923L127.721 246.912C183.122 276.625 241.983 217.587 203.527 170.879L184.846 148.19C175.626 136.991 178.035 121.407 190.228 113.382C206.113 102.927 204.493 80.9473 187.157 71.7129L140.421 46.8174C80.9582 15.1432 18.0347 78.4554 59.239 128.501L83.1371 157.526C90.905 166.961 88.8752 180.09 78.6033 186.851C65.2453 195.643 66.5751 214.117 81.1278 221.923Z" fill="#F5F5F5" fill-opacity="0.5"/>
<path d="M62.1865 57.1204C80.1557 39.0401 110.681 31.1452 140.351 46.9495L187.087 71.845C204.332 81.0309 205.927 102.87 190.145 113.257C177.879 121.33 175.453 137.017 184.73 148.285L203.411 170.975C213.002 182.624 216.52 195.033 215.548 206.63C214.575 218.23 209.109 229.028 200.714 237.448C183.924 254.287 155.43 261.603 127.792 246.78L81.1992 221.79C66.7373 214.034 65.4312 195.7 78.6855 186.976C89.031 180.167 91.0782 166.935 83.2529 157.431L59.3544 128.406C49.0765 115.922 45.2977 102.62 46.3281 90.1829C47.3587 77.744 53.2018 66.1606 62.1865 57.1204Z" stroke="#060606" stroke-width="0.3"/>
<path d="M104.66 204.142L151.254 229.131C206.654 258.844 265.516 199.806 227.059 153.099L208.379 130.41C199.158 119.211 201.567 103.626 213.76 95.6015C229.645 85.1463 228.026 63.1665 210.69 53.9321L163.953 29.0366C104.49 -2.63761 41.567 60.6746 82.7712 110.72L106.669 139.746C114.437 149.18 112.407 162.309 102.136 169.07C88.7776 177.862 90.1074 196.337 104.66 204.142Z" fill="#F5F5F5" fill-opacity="0.5"/>
<path d="M85.7188 39.3396C103.688 21.2594 134.213 13.3645 163.883 29.1687L210.619 54.0642C227.864 63.2501 229.459 85.0896 213.678 95.4763C201.411 103.55 198.985 119.236 208.263 130.505L226.943 153.194C236.534 164.843 240.053 177.252 239.08 188.849C238.107 200.449 232.641 211.247 224.246 219.667C207.457 236.506 178.963 243.822 151.324 228.999L104.731 204.01C90.2696 196.253 88.9635 177.919 102.218 169.195C112.563 162.386 114.61 149.155 106.785 139.65L82.8867 110.625C72.6088 98.1415 68.83 84.8388 69.8604 72.4021C70.8909 59.9633 76.7341 48.3798 85.7188 39.3396Z" stroke="#060606" stroke-width="0.3"/>
<path d="M129.274 185.618L175.868 210.607C231.268 240.32 290.13 181.282 251.674 134.574L232.993 111.885C223.772 100.686 226.182 85.1023 238.374 77.0773C254.259 66.6222 252.64 44.6424 235.304 35.4079L188.567 10.5124C129.105 -21.1618 66.1813 42.1504 107.385 92.1957L131.284 121.222C139.052 130.656 137.022 143.785 126.75 150.546C113.392 159.338 114.722 177.813 129.274 185.618Z" fill="#F5F5F5" fill-opacity="0.2" stroke="#060606"/>
</svg>
